# xmcd CD database file
#
# Track frame offsets:
#	150
#	14887
#	33825
#
# Disc length: 644 seconds
#
# Revision: 1
# Processed by: cddbd v1.5PL3 Copyright (c) Steve Scherf et al.
# Submitted via: CDex 1.50beta9
#
DISCID=1e028203
DTITLE=ミニモニ。 - CRAZY ABOUT YOU
DYEAR=2003
DGENRE=JPop
TTITLE0=CRAZY ABOUT YOU
TTITLE1=恋愛一周年
TTITLE2=CRAZY ABOUT YOU（オリジナル・カラオケ）
EXTD=YEAR: 2003
EXTT0=
EXTT1=
EXTT2=
PLAYORDER=
